HIERARCHY
ROOT mixamorig:Hips
{
	OFFSET 0.00 0.00 0.00
	CHANNELS 6 Xposition Yposition Zposition Zrotation Yrotation Xrotation
	JOINT mixamorig:Spine
	{
		OFFSET	0.0000	9.9235	-1.2273
		CHANNELS 3 Zrotation Yrotation Xrotation
		JOINT mixamorig:Spine1
		{
			OFFSET	-0.0001	11.6455	-1.4224
			CHANNELS 3 Zrotation Yrotation Xrotation
			JOINT mixamorig:Spine2
			{
				OFFSET	0.0001	13.3602	-1.6265
				CHANNELS 3 Zrotation Yrotation Xrotation
				JOINT mixamorig:Neck
				{
					OFFSET	0.0000	15.0325	0.7929
					CHANNELS 3 Zrotation Yrotation Xrotation
					JOINT mixamorig:Head
					{
						OFFSET	-0.0000	10.3218	3.1424
						CHANNELS 3 Zrotation Yrotation Xrotation
						JOINT mixamorig:HeadTop_End
						{
							OFFSET	0.0002	18.4747	6.6364
							CHANNELS 3 Zrotation Yrotation Xrotation
							End Site
							{
								OFFSET 0.0000 0.0000 0.0000
							}
						}
						JOINT mixamorig:LeftEye
						{
							OFFSET	2.9479	7.6817	9.1207
							CHANNELS 3 Zrotation Yrotation Xrotation
							End Site
							{
								OFFSET 0.0000 0.0000 0.0000
							}
						}
						JOINT mixamorig:RightEye
						{
							OFFSET	-2.9445	7.6817	9.1205
							CHANNELS 3 Zrotation Yrotation Xrotation
							End Site
							{
								OFFSET 0.0000 0.0000 0.0000
							}
						}
					}
				}
				JOINT mixamorig:LeftShoulder
				{
					OFFSET	6.1059	9.1104	0.7056
					CHANNELS 3 Zrotation Yrotation Xrotation
					JOINT mixamorig:LeftArm
					{
						OFFSET	12.6532	-0.3431	-2.6009
						CHANNELS 3 Zrotation Yrotation Xrotation
						JOINT mixamorig:LeftForeArm
						{
							OFFSET	27.3517	-0.9645	-1.4034
							CHANNELS 3 Zrotation Yrotation Xrotation
							JOINT mixamorig:LeftHand
							{
								OFFSET	27.5619	-0.7072	1.5500
								CHANNELS 3 Zrotation Yrotation Xrotation
								JOINT mixamorig:LeftHandMiddle1
								{
									OFFSET	12.6630	-1.3962	0.9548
									CHANNELS 3 Zrotation Yrotation Xrotation
									JOINT mixamorig:LeftHandMiddle2
									{
										OFFSET	3.6093	-0.1669	0.0778
										CHANNELS 3 Zrotation Yrotation Xrotation
										JOINT mixamorig:LeftHandMiddle3
										{
											OFFSET	3.4004	-0.6274	0.1148
											CHANNELS 3 Zrotation Yrotation Xrotation
											End Site
											{
												OFFSET 3.6205 -0.6493 0.1199
											}
										}
									}
								}
								JOINT mixamorig:LeftHandThumb1
								{
									OFFSET	3.3268	-2.0474	3.5790
									CHANNELS 3 Zrotation Yrotation Xrotation
									JOINT mixamorig:LeftHandThumb2
									{
										OFFSET	3.4890	-1.4806	2.8548
										CHANNELS 3 Zrotation Yrotation Xrotation
										JOINT mixamorig:LeftHandThumb3
										{
											OFFSET	3.4086	-1.7658	2.1133
											CHANNELS 3 Zrotation Yrotation Xrotation
											End Site
											{
												OFFSET 2.7231 -1.1597 1.7903
											}
										}
									}
								}
								JOINT mixamorig:LeftHandIndex1
								{
									OFFSET	11.9722	-1.1061	3.7324
									CHANNELS 3 Zrotation Yrotation Xrotation
									JOINT mixamorig:LeftHandIndex2
									{
										OFFSET	3.8387	-0.6406	-0.0310
										CHANNELS 3 Zrotation Yrotation Xrotation
										JOINT mixamorig:LeftHandIndex3
										{
											OFFSET	3.3346	-0.7374	-0.0133
											CHANNELS 3 Zrotation Yrotation Xrotation
											End Site
											{
												OFFSET 2.9714 -0.8030 0.0009
											}
										}
									}
								}
								JOINT mixamorig:LeftHandRing1
								{
									OFFSET	12.1659	-1.6805	-1.2769
									CHANNELS 3 Zrotation Yrotation Xrotation
									JOINT mixamorig:LeftHandRing2
									{
										OFFSET	3.5925	-0.2366	-0.0771
										CHANNELS 3 Zrotation Yrotation Xrotation
										JOINT mixamorig:LeftHandRing3
										{
											OFFSET	3.2906	-0.3266	-0.0615
											CHANNELS 3 Zrotation Yrotation Xrotation
											End Site
											{
												OFFSET 3.5423 -0.9211 -0.0200
											}
										}
									}
								}
								JOINT mixamorig:LeftHandPinky1
								{
									OFFSET	11.0508	-2.1872	-3.8040
									CHANNELS 3 Zrotation Yrotation Xrotation
									JOINT mixamorig:LeftHandPinky2
									{
										OFFSET	4.1236	-0.3047	0.1212
										CHANNELS 3 Zrotation Yrotation Xrotation
										JOINT mixamorig:LeftHandPinky3
										{
											OFFSET	2.5805	-0.2597	0.0823
											CHANNELS 3 Zrotation Yrotation Xrotation
											End Site
											{
												OFFSET 2.9027 -0.3379 0.0963
											}
										}
									}
								}
							}
						}
					}
				}
				JOINT mixamorig:RightShoulder
				{
					OFFSET	-6.1057	9.1105	0.7056
					CHANNELS 3 Zrotation Yrotation Xrotation
					JOINT mixamorig:RightArm
					{
						OFFSET	-12.6532	-0.3429	-2.6009
						CHANNELS 3 Zrotation Yrotation Xrotation
						JOINT mixamorig:RightForeArm
						{
							OFFSET	-27.3518	-0.9642	-1.4034
							CHANNELS 3 Zrotation Yrotation Xrotation
							JOINT mixamorig:RightHand
							{
								OFFSET	-27.5619	-0.7068	1.5501
								CHANNELS 3 Zrotation Yrotation Xrotation
								JOINT mixamorig:RightHandMiddle1
								{
									OFFSET	-12.6630	-1.3960	0.9549
									CHANNELS 3 Zrotation Yrotation Xrotation
									JOINT mixamorig:RightHandMiddle2
									{
										OFFSET	-3.6093	-0.1669	0.0778
										CHANNELS 3 Zrotation Yrotation Xrotation
										JOINT mixamorig:RightHandMiddle3
										{
											OFFSET	-3.4004	-0.6273	0.1148
											CHANNELS 3 Zrotation Yrotation Xrotation
											End Site
											{
												OFFSET -3.6205 -0.6492 0.1199
											}
										}
									}
								}
								JOINT mixamorig:RightHandThumb1
								{
									OFFSET	-3.3269	-2.0474	3.5790
									CHANNELS 3 Zrotation Yrotation Xrotation
									JOINT mixamorig:RightHandThumb2
									{
										OFFSET	-3.4890	-1.4805	2.8548
										CHANNELS 3 Zrotation Yrotation Xrotation
										JOINT mixamorig:RightHandThumb3
										{
											OFFSET	-3.4086	-1.7658	2.1133
											CHANNELS 3 Zrotation Yrotation Xrotation
											End Site
											{
												OFFSET -2.7231 -1.1596 1.7903
											}
										}
									}
								}
								JOINT mixamorig:RightHandIndex1
								{
									OFFSET	-11.9722	-1.1059	3.7324
									CHANNELS 3 Zrotation Yrotation Xrotation
									JOINT mixamorig:RightHandIndex2
									{
										OFFSET	-3.8387	-0.6406	-0.0310
										CHANNELS 3 Zrotation Yrotation Xrotation
										JOINT mixamorig:RightHandIndex3
										{
											OFFSET	-3.3346	-0.7373	-0.0133
											CHANNELS 3 Zrotation Yrotation Xrotation
											End Site
											{
												OFFSET -2.9715 -0.8029 0.0009
											}
										}
									}
								}
								JOINT mixamorig:RightHandRing1
								{
									OFFSET	-12.1659	-1.6803	-1.2769
									CHANNELS 3 Zrotation Yrotation Xrotation
									JOINT mixamorig:RightHandRing2
									{
										OFFSET	-3.5925	-0.2366	-0.0771
										CHANNELS 3 Zrotation Yrotation Xrotation
										JOINT mixamorig:RightHandRing3
										{
											OFFSET	-3.2906	-0.3265	-0.0615
											CHANNELS 3 Zrotation Yrotation Xrotation
											End Site
											{
												OFFSET -3.5423 -0.9210 -0.0200
											}
										}
									}
								}
								JOINT mixamorig:RightHandPinky1
								{
									OFFSET	-11.0508	-2.1870	-3.8040
									CHANNELS 3 Zrotation Yrotation Xrotation
									JOINT mixamorig:RightHandPinky2
									{
										OFFSET	-4.1236	-0.3046	0.1212
										CHANNELS 3 Zrotation Yrotation Xrotation
										JOINT mixamorig:RightHandPinky3
										{
											OFFSET	-2.5805	-0.2597	0.0823
											CHANNELS 3 Zrotation Yrotation Xrotation
											End Site
											{
												OFFSET -2.9027 -0.3379 0.0963
											}
										}
									}
								}
							}
						}
					}
				}
			}
		}
	}
	JOINT mixamorig:RightUpLeg
	{
		OFFSET	-9.1245	-6.6564	-0.0554
		CHANNELS 3 Zrotation Yrotation Xrotation
		JOINT mixamorig:RightLeg
		{
			OFFSET	0.0000	-40.5610	-1.7662
			CHANNELS 3 Zrotation Yrotation Xrotation
			JOINT mixamorig:RightFoot
			{
				OFFSET	0.4978	-41.9625	-3.3512
				CHANNELS 3 Zrotation Yrotation Xrotation
				JOINT mixamorig:RightToeBase
				{
					OFFSET	-0.3734	-10.4922	12.6406
					CHANNELS 3 Zrotation Yrotation Xrotation
					End Site
					{
						OFFSET 0.0000 0.0000 9.9925
					}
				}
			}
		}
	}
	JOINT mixamorig:LeftUpLeg
	{
		OFFSET	9.1245	-6.6564	-0.0554
		CHANNELS 3 Zrotation Yrotation Xrotation
		JOINT mixamorig:LeftLeg
		{
			OFFSET	-0.0000	-40.5610	-1.7662
			CHANNELS 3 Zrotation Yrotation Xrotation
			JOINT mixamorig:LeftFoot
			{
				OFFSET	-0.4978	-41.9625	-3.3512
				CHANNELS 3 Zrotation Yrotation Xrotation
				JOINT mixamorig:LeftToeBase
				{
					OFFSET	0.3734	-10.4922	12.6406
					CHANNELS 3 Zrotation Yrotation Xrotation
					End Site
					{
						OFFSET -0.0000 0.0000 9.9925
					}
				}
			}
		}
	}
}
MOTION
Frames: 4
Frame Time: 0.0333333
-1.7181 95.9228 -1.2485 1.8240 -39.8840 -14.2375 -0.1532 -0.0342 7.9917 -0.7511 0.0904 16.4137 -0.7462 0.0187 16.4146 0.8930 7.4746 0.4805 10.0102 22.4919 -2.7125 0.0000 -0.0000 0.0000 0.0000 -0.0000 0.0000 0.0000 -0.0000 0.0000 4.4464 -2.6614 -37.7542 -49.3915 -41.0415 -19.9972 0.8324 -58.8112 -2.4353 -26.5454 28.2838 -116.4297 -56.4331 -4.9784 2.7749 -57.3056 -2.1266 2.4889 -18.1751 -1.0173 0.5736 -3.8737 9.9023 10.3546 10.3212 -9.0556 12.3347 0.3601 -7.8265 -1.2259 -33.8206 -6.4671 0.6929 -57.2184 -2.8286 0.5577 -21.5748 -1.0504 -0.0940 -64.0616 -8.6750 2.8915 -70.2069 -3.8451 0.7270 -16.9118 -0.7411 -0.2249 -74.8318 -13.3525 3.2042 -62.6547 -2.1714 3.1026 -13.1906 -0.7145 0.4307 -2.2091 -13.2044 -40.1443 99.7975 40.3671 64.4513 -145.1555 87.2755 -147.1948 -7.6930 -37.0149 -35.5672 55.6537 1.5150 3.3950 102.7374 3.1547 6.5858 19.0792 1.4530 0.6051 17.0970 -4.9082 13.6430 -23.0690 -7.9996 19.4006 -35.2141 -47.8920 35.0243 8.7923 8.3555 -0.9495 29.9023 2.1934 -0.0233 27.1161 1.9608 -0.0565 59.7516 12.7210 2.9457 97.7587 5.9859 3.4127 41.4214 3.1932 0.0999 66.8322 10.7815 3.6334 81.0646 3.3562 5.1857 58.9000 3.2536 3.3787 -5.6362 5.5207 1.6290 0.7797 -0.6785 31.1846 10.3175 -14.9756 -20.7944 0.0000 -0.0000 -0.0205 18.7773 47.3648 -2.5672 -0.3817 0.7002 22.0455 -2.7872 1.4302 4.2120 0.0000 0.0000 -0.0000 
-1.5061 95.8688 -1.3019 1.9975 -40.1622 -13.2268 -0.3033 0.1337 8.4501 -0.7727 0.1385 16.3808 -0.7681 0.0698 16.3805 0.6914 7.4681 0.3501 9.2402 22.4956 -2.6730 0.0000 -0.0000 0.0000 0.0000 -0.0000 0.0000 0.0000 -0.0000 0.0000 4.4220 -2.6030 -37.3118 -50.4106 -41.3483 -20.9189 0.8429 -58.9375 -2.4475 -26.1861 27.9363 -115.7074 -56.4095 -4.9840 2.7732 -57.2753 -2.1261 2.4871 -18.1437 -1.0157 0.5724 -3.8700 9.8970 10.3699 10.3300 -9.0664 12.3297 0.3551 -7.8268 -1.2254 -33.7652 -6.4761 0.6881 -57.2188 -2.8287 0.5578 -21.5743 -1.0504 -0.0940 -64.0053 -8.6849 2.8873 -70.1947 -3.8445 0.7265 -16.8989 -0.7403 -0.2248 -74.8301 -13.3554 3.2039 -62.5866 -2.1710 3.0983 -13.1851 -0.7142 0.4305 -2.5077 -13.4360 -39.6895 100.0318 40.9558 64.5006 -145.4729 87.2519 -147.5126 -7.5035 -37.0114 -34.5968 55.6559 1.5221 3.3949 102.7449 3.1544 6.5864 19.0770 1.4529 0.6049 17.0940 -4.9071 13.6785 -23.0434 -7.9649 19.3910 -35.2624 -47.9061 35.0408 8.8193 8.3693 -0.9506 29.9033 2.1935 -0.0232 27.1170 1.9608 -0.0565 59.7614 12.7198 2.9466 97.7600 5.9859 3.4128 41.4211 3.1932 0.0998 66.8533 10.7806 3.6352 81.0702 3.3562 5.1862 58.9049 3.2537 3.3791 -6.2344 5.4138 -0.1155 1.1774 -0.5069 31.8774 10.5279 -14.4962 -21.1171 -0.0000 -0.0000 -0.2246 17.2448 47.7272 -4.5684 0.0171 1.4166 22.5731 -2.6798 1.4406 3.9685 0.0000 -0.0000 -0.1544 
-0.9888 95.7541 -1.4746 2.2528 -40.8928 -11.7825 -0.4617 0.3729 9.2832 -0.7622 0.2232 16.1924 -0.7595 0.1593 16.1915 0.3551 7.5288 0.2261 7.7245 22.9831 -3.0143 0.0000 -0.0000 0.0000 0.0000 -0.0000 0.0000 0.0000 -0.0000 0.0000 4.3509 -2.4413 -36.0948 -50.9860 -41.4956 -21.9924 0.9374 -60.0317 -2.5570 -25.1070 27.1425 -116.0926 -56.3676 -4.9864 2.7704 -57.2288 -2.1254 2.4843 -18.0958 -1.0133 0.5705 -3.8640 9.8879 10.3957 10.3446 -9.0843 12.3210 0.3432 -7.8277 -1.2246 -33.6756 -6.4993 0.6789 -57.2136 -2.8284 0.5576 -21.5684 -1.0500 -0.0941 -63.9263 -8.6963 2.8816 -70.1822 -3.8440 0.7259 -16.8860 -0.7396 -0.2247 -74.8284 -13.3587 3.2035 -62.4759 -2.1705 3.0912 -13.1753 -0.7137 0.4301 -2.7077 -13.2360 -38.4142 99.6739 42.2731 63.9937 -148.8341 86.9675 -150.8780 -6.5276 -36.6828 -32.7901 55.7061 1.5274 3.3986 102.7497 3.1543 6.5867 19.0748 1.4527 0.6048 17.0959 -4.9000 13.7029 -23.0239 -7.9383 19.3838 -35.3100 -47.9214 35.0589 8.8491 8.3838 -0.9516 29.9042 2.1935 -0.0232 27.1180 1.9609 -0.0565 59.7710 12.7186 2.9475 97.7625 5.9860 3.4130 41.4220 3.1932 0.0999 66.8697 10.7794 3.6367 81.0867 3.3560 5.1875 58.9206 3.2540 3.3804 -7.0665 5.3016 -2.9996 1.8319 -0.0216 33.1234 10.4095 -13.9832 -21.1251 -0.0000 0.0000 -0.6202 14.8239 48.3547 -7.7492 0.9959 2.9739 23.5595 -2.4683 1.4326 3.5594 0.0000 -0.0000 -0.2236 
-0.0833 95.5362 -1.8415 2.7429 -42.0004 -9.7444 -0.6734 0.4926 10.4127 -0.7298 0.2914 15.8664 -0.7303 0.2342 15.8657 -0.1549 7.6801 0.0270 5.3656 24.0101 -4.1095 0.0000 -0.0000 0.0000 0.0000 -0.0000 0.0000 0.0000 -0.0000 0.0000 4.2309 -2.1903 -34.2307 -51.3643 -41.3496 -23.1422 1.1226 -61.9571 -2.7686 -23.3342 26.0141 -117.1940 -56.3255 -4.9857 2.7678 -57.1876 -2.1247 2.4818 -18.0533 -1.0112 0.5687 -3.8545 9.8729 10.4374 10.3606 -9.1041 12.3113 0.3239 -7.8292 -1.2235 -33.5915 -6.5280 0.6694 -57.2051 -2.8281 0.5573 -21.5594 -1.0496 -0.0941 -63.8572 -8.7057 2.8767 -70.1758 -3.8438 0.7257 -16.8790 -0.7391 -0.2247 -74.8266 -13.3619 3.2032 -62.3727 -2.1699 3.0846 -13.1695 -0.7134 0.4299 -2.8318 -12.6349 -36.4585 98.6901 44.3268 63.1874 -152.5771 86.5566 -154.6269 -4.9494 -35.9526 -30.6602 55.7636 1.5272 3.4033 102.7525 3.1541 6.5869 19.0726 1.4526 0.6048 17.0960 -4.8953 13.7272 -23.0122 -7.9221 19.3796 -35.3540 -47.9368 35.0777 8.8668 8.3966 -0.9530 29.9051 2.1936 -0.0232 27.1189 1.9609 -0.0565 59.7737 12.7170 2.9478 97.7667 5.9860 3.4133 41.4246 3.1934 0.1000 66.8792 10.7781 3.6376 81.0904 3.3559 5.1878 58.9236 3.2541 3.3806 -8.3203 5.0768 -7.7612 3.0023 0.9487 35.5533 10.4927 -13.7829 -20.6871 0.0000 0.0000 -1.3636 10.7777 49.0699 -12.8860 2.5721 5.2233 25.0345 -2.0617 1.4003 2.9438 0.0000 -0.0000 -0.3101 
